<?xml version="1.0" encoding="utf-8"?>
<!-- Generator: Adobe Illustrator 19.1.0, SVG Export Plug-In . SVG Version: 6.00 Build 0)  -->
<!DOCTYPE svg PUBLIC "-//W3C//DTD SVG 1.1//EN" "http://www.w3.org/Graphics/SVG/1.1/DTD/svg11.dtd">
<svg version="1.1" id="_x2F__x2A__x2A__x0D___x2A___x40_document_x0D___x2A___x40_this__x0D___x2A__x2F_"
	 xmlns="http://www.w3.org/2000/svg" xmlns:xlink="http://www.w3.org/1999/xlink" x="0px" y="0px" viewBox="0 0 351 351"
	 enable-background="new 0 0 351 351" xml:space="preserve">
<rect fill="#1E1E1E" width="351" height="351"/>
<g>
	<path fill="#608B4E" d="M40,60.2h4.1L27.2,96.4h-4.1L40,60.2z"/>
	<path fill="#608B4E" d="M72.2,73.6l-9.5,5.2l9.5,5.2l-1.5,2.6l-9-5.4v10h-3.1v-10l-9,5.4l-1.5-2.6l9.6-5.2l-9.6-5.2l1.5-2.6l9,5.4
		v-10h3.1v10l9-5.4L72.2,73.6z"/>
	<path fill="#608B4E" d="M98.1,73.6l-9.5,5.2l9.5,5.2l-1.5,2.6l-9-5.4v10h-3.1v-10l-9,5.4l-1.5-2.6l9.6-5.2l-9.6-5.2l1.5-2.6l9,5.4
		v-10h3.1v10l9-5.4L98.1,73.6z"/>
	<path fill="#608B4E" d="M72.2,138.1l-9.5,5.2l9.5,5.2l-1.5,2.6l-9-5.4v10h-3.1v-10l-9,5.4l-1.5-2.6l9.6-5.2l-9.6-5.2l1.5-2.6l9,5.4
		v-10h3.1v10l9-5.4L72.2,138.1z"/>
	<path fill="#608B4E" d="M124,153.9h-3.1v-2.4c-0.5,0.9-1.3,1.6-2.2,2.1c-0.9,0.5-2,0.7-3.2,0.7c-2.3,0-4.2-0.9-5.7-2.6
		c-1.5-1.7-2.3-3.9-2.3-6.6c0-2.7,0.8-4.9,2.3-6.6c1.5-1.7,3.4-2.6,5.7-2.6c1.1,0,2.2,0.3,3.2,0.8c1,0.5,1.7,1.2,2.2,2.1v-1.4
		c0-2.2-0.6-4-1.9-5.4c-1.3-1.4-2.9-2-5-2c-3.5,0-6.3,1.4-8.4,4.1c-2.1,2.7-3.1,6.5-3.1,11.1c0,4.7,1.2,8.5,3.5,11.3
		s5.6,4.2,9.7,4.2c0.8,0.1,1.9,0.2,3.3,0.2c1.4,0,2.7,0,3.8-0.1v3.1c-0.9,0.1-2.1,0.1-3.6,0.1c-1.5,0-2.6-0.1-3.4-0.2
		c-5,0-9-1.7-12-5.1c-3-3.3-4.5-7.8-4.5-13.5c0-5.6,1.3-10,4-13.3c2.7-3.3,6.3-5,10.8-5c3,0,5.4,1,7.2,2.9c1.8,1.9,2.7,4.5,2.7,7.7
		V153.9z M121,145.1c0-1.8-0.5-3.3-1.4-4.4c-0.9-1.1-2.1-1.7-3.7-1.7c-1.5,0-2.8,0.6-3.7,1.7c-0.9,1.1-1.4,2.6-1.4,4.4
		c0,1.9,0.5,3.3,1.4,4.5c0.9,1.1,2.2,1.7,3.7,1.7c1.5,0,2.8-0.6,3.7-1.7C120.5,148.5,121,147,121,145.1z"/>
	<path fill="#608B4E" d="M143.1,135.8v-12.4h4v33.4h-4v-3c-0.7,1.2-1.5,2.1-2.6,2.7s-2.4,0.9-3.8,0.9c-2.9,0-5.2-1.1-6.9-3.4
		c-1.7-2.3-2.5-5.4-2.5-9.3c0-3.9,0.8-7,2.5-9.2c1.7-2.2,4-3.3,6.9-3.3c1.4,0,2.7,0.3,3.8,0.9C141.6,133.7,142.4,134.7,143.1,135.8z
		 M131.4,144.8c0,3.1,0.5,5.4,1.5,6.9c1,1.6,2.4,2.3,4.3,2.3c1.9,0,3.4-0.8,4.4-2.4c1-1.6,1.5-3.9,1.5-6.9c0-3.1-0.5-5.4-1.5-6.9
		c-1-1.6-2.4-2.4-4.4-2.4c-1.9,0-3.3,0.8-4.3,2.3C131.9,139.4,131.4,141.8,131.4,144.8z"/>
	<path fill="#608B4E" d="M163.8,132.2c3.3,0,5.9,1.1,7.7,3.2c1.8,2.2,2.7,5.3,2.7,9.4c0,4.1-0.9,7.2-2.6,9.4
		c-1.8,2.2-4.3,3.2-7.7,3.2c-3.3,0-5.9-1.1-7.6-3.2c-1.8-2.2-2.6-5.3-2.6-9.4c0-4.1,0.9-7.2,2.6-9.4
		C157.9,133.3,160.4,132.2,163.8,132.2z M163.8,135.5c-2,0-3.5,0.8-4.6,2.3c-1,1.6-1.5,3.9-1.5,6.9c0,3.1,0.5,5.4,1.5,6.9
		s2.5,2.4,4.6,2.4c2,0,3.5-0.8,4.6-2.4s1.5-3.9,1.5-6.9c0-3.1-0.5-5.4-1.5-6.9C167.3,136.3,165.8,135.5,163.8,135.5z"/>
	<path fill="#608B4E" d="M199.2,155.6c-1.1,0.6-2.2,1.1-3.3,1.4c-1.1,0.3-2.3,0.5-3.4,0.5c-3.7,0-6.6-1.1-8.7-3.4
		c-2.1-2.2-3.1-5.3-3.1-9.3s1-7,3.1-9.3c2.1-2.2,5-3.4,8.7-3.4c1.2,0,2.3,0.2,3.4,0.5c1.1,0.3,2.2,0.8,3.3,1.4v4.1
		c-1-0.9-2.1-1.6-3.1-2c-1.1-0.4-2.2-0.6-3.6-0.6c-2.5,0-4.4,0.8-5.7,2.4c-1.3,1.6-2,3.9-2,6.9c0,3,0.7,5.3,2,6.9
		c1.3,1.6,3.2,2.4,5.7,2.4c1.4,0,2.6-0.2,3.7-0.6c1.1-0.4,2.1-1.1,3-2V155.6z"/>
	<path fill="#608B4E" d="M206.6,147.7v-14.9h4v14.9c0,2.2,0.4,3.8,1.1,4.8c0.8,1,2,1.5,3.6,1.5c1.9,0,3.3-0.7,4.3-2s1.5-3.2,1.5-5.6
		v-13.6h4v24h-4v-3.6c-0.7,1.4-1.7,2.4-2.9,3.2c-1.2,0.7-2.6,1.1-4.2,1.1c-2.5,0-4.3-0.8-5.5-2.4S206.6,151,206.6,147.7z"/>
	<path fill="#608B4E" d="M242.8,135.2c0.5-1,1.1-1.8,1.9-2.3s1.7-0.7,2.7-0.7c1.9,0,3.3,0.7,4.1,2.2c0.8,1.5,1.2,4.3,1.2,8.5v13.9
		h-3.6v-13.8c0-3.4-0.2-5.5-0.6-6.3c-0.4-0.8-1.1-1.2-2.1-1.2c-1.1,0-1.9,0.4-2.4,1.3c-0.4,0.9-0.6,3-0.6,6.2v13.8h-3.6v-13.8
		c0-3.4-0.2-5.6-0.6-6.4c-0.4-0.8-1.1-1.2-2.2-1.2c-1,0-1.8,0.4-2.2,1.3s-0.6,3-0.6,6.2v13.8h-3.6v-24.1h3.6v2.1
		c0.5-0.9,1.1-1.5,1.8-2s1.5-0.7,2.4-0.7c1.1,0,2,0.3,2.7,0.8C241.9,133.4,242.4,134.2,242.8,135.2z"/>
	<path fill="#608B4E" d="M278.3,142.8v1.9h-17.1v0.1c-0.1,3.3,0.5,5.6,1.9,7.1c1.4,1.4,3.3,2.1,5.8,2.1c1.3,0,2.6-0.2,4-0.6
		c1.4-0.4,2.8-1,4.4-1.8v3.9c-1.5,0.6-3,1.1-4.4,1.4s-2.7,0.5-4,0.5c-3.7,0-6.7-1.1-8.8-3.4c-2.1-2.2-3.2-5.3-3.2-9.3
		c0-3.8,1-6.9,3.1-9.2c2.1-2.3,4.8-3.4,8.2-3.4c3.1,0,5.5,1,7.3,3.1C277.2,137.4,278.2,139.9,278.3,142.8z M274.3,141.7
		c-0.2-1.7-0.8-3.1-1.8-4.3c-1-1.2-2.5-1.8-4.5-1.8c-1.9,0-3.5,0.6-4.7,1.9c-1.2,1.3-1.9,2.7-2,4.3L274.3,141.7z"/>
	<path fill="#608B4E" d="M302.7,141.9v14.9h-4v-14.9c0-2.2-0.4-3.8-1.1-4.8c-0.8-1-1.9-1.5-3.6-1.5c-1.8,0-3.3,0.7-4.3,2
		c-1,1.3-1.5,3.2-1.5,5.6v13.6h-4v-24.1h4v3.6c0.7-1.4,1.7-2.4,2.9-3.1s2.6-1.1,4.3-1.1c2.4,0,4.3,0.8,5.5,2.4
		C302.1,136.2,302.7,138.7,302.7,141.9z"/>
	<path fill="#608B4E" d="M319.2,125.9v6.8h9v3.1h-9v13.1c0,1.8,0.3,3,1,3.7c0.7,0.7,1.8,1.1,3.5,1.1h4.4v3.2h-4.8
		c-3,0-5.1-0.6-6.3-1.8c-1.2-1.2-1.8-3.2-1.8-6.1v-13.1h-6.4v-3.1h6.4v-6.8H319.2z"/>
	<path fill="#608B4E" d="M72.2,202.6l-9.5,5.2l9.5,5.2l-1.5,2.6l-9-5.4v10h-3.1v-10l-9,5.4l-1.5-2.6l9.6-5.2l-9.6-5.2l1.5-2.6l9,5.4
		v-10h3.1v10l9-5.4L72.2,202.6z"/>
	<path fill="#608B4E" d="M124,218.4h-3.1v-2.4c-0.5,0.9-1.3,1.6-2.2,2.1c-0.9,0.5-2,0.7-3.2,0.7c-2.3,0-4.2-0.9-5.7-2.6
		c-1.5-1.7-2.3-3.9-2.3-6.6c0-2.7,0.8-4.9,2.3-6.6c1.5-1.7,3.4-2.6,5.7-2.6c1.1,0,2.2,0.3,3.2,0.8c1,0.5,1.7,1.2,2.2,2.1v-1.4
		c0-2.2-0.6-4-1.9-5.4c-1.3-1.4-2.9-2-5-2c-3.5,0-6.3,1.4-8.4,4.1c-2.1,2.7-3.1,6.5-3.1,11.1c0,4.7,1.2,8.5,3.5,11.3
		s5.6,4.2,9.7,4.2c0.8,0.1,1.9,0.2,3.3,0.2c1.4,0,2.7,0,3.8-0.1v3.1c-0.9,0.1-2.1,0.1-3.6,0.1c-1.5,0-2.6-0.1-3.4-0.2
		c-5,0-9-1.7-12-5.1c-3-3.3-4.5-7.8-4.5-13.5c0-5.6,1.3-10,4-13.3c2.7-3.3,6.3-5,10.8-5c3,0,5.4,1,7.2,2.9c1.8,1.9,2.7,4.5,2.7,7.7
		V218.4z M121,209.6c0-1.8-0.5-3.3-1.4-4.4c-0.9-1.1-2.1-1.7-3.7-1.7c-1.5,0-2.8,0.6-3.7,1.7c-0.9,1.1-1.4,2.6-1.4,4.4
		c0,1.9,0.5,3.3,1.4,4.5c0.9,1.1,2.2,1.7,3.7,1.7c1.5,0,2.8-0.6,3.7-1.7C120.5,213,121,211.5,121,209.6z"/>
	<path fill="#608B4E" d="M137.8,190.4v6.8h9v3.1h-9v13.1c0,1.8,0.3,3,1,3.7c0.7,0.7,1.8,1.1,3.5,1.1h4.4v3.2H142
		c-3,0-5.1-0.6-6.3-1.8c-1.2-1.2-1.8-3.2-1.8-6.1v-13.1h-6.4v-3.1h6.4v-6.8H137.8z"/>
	<path fill="#608B4E" d="M173.1,206.4v14.9h-4v-14.9c0-2.2-0.4-3.8-1.1-4.8c-0.8-1-1.9-1.5-3.6-1.5c-1.8,0-3.3,0.7-4.3,2
		c-1,1.3-1.5,3.2-1.5,5.6v13.6h-4v-33.4h4v13c0.7-1.4,1.7-2.4,2.9-3.1s2.6-1.1,4.3-1.1c2.4,0,4.3,0.8,5.5,2.4
		C172.5,200.7,173.1,203.2,173.1,206.4z"/>
	<path fill="#608B4E" d="M183.2,197.4h10.1v20.9h7.8v3.1h-19.6v-3.1h7.8v-17.8h-6.2V197.4z M189.4,188h4v5h-4V188z"/>
	<path fill="#608B4E" d="M223.3,198.1v3.9c-1.1-0.7-2.3-1.2-3.4-1.5c-1.1-0.3-2.3-0.5-3.5-0.5c-1.8,0-3.1,0.3-4,0.9
		s-1.3,1.5-1.3,2.7c0,1.1,0.3,1.9,1,2.4c0.7,0.5,2.3,1,4.9,1.5l1.6,0.3c2,0.4,3.4,1.1,4.5,2.2s1.5,2.6,1.5,4.4
		c0,2.4-0.8,4.2-2.5,5.6c-1.7,1.3-4,2-7,2c-1.2,0-2.4-0.1-3.7-0.4c-1.3-0.2-2.7-0.6-4.2-1.1v-4.1c1.5,0.8,2.9,1.3,4.2,1.7
		c1.3,0.4,2.6,0.6,3.8,0.6c1.7,0,3.1-0.4,4.1-1.1c1-0.7,1.4-1.7,1.4-3c0-1.8-1.8-3.1-5.3-3.8l-0.2,0l-1.5-0.3
		c-2.3-0.4-3.9-1.2-5-2.2c-1-1.1-1.6-2.5-1.6-4.3c0-2.3,0.8-4.1,2.3-5.3c1.6-1.3,3.8-1.9,6.7-1.9c1.3,0,2.5,0.1,3.7,0.4
		C221,197.3,222.1,197.6,223.3,198.1z"/>
	<path fill="#608B4E" d="M72.2,267.1l-9.5,5.2l9.5,5.2l-1.5,2.6l-9-5.4v10h-3.1v-10l-9,5.4l-1.5-2.6l9.6-5.2l-9.6-5.2l1.5-2.6l9,5.4
		v-10h3.1v10l9-5.4L72.2,267.1z"/>
	<path fill="#608B4E" d="M91.9,253.8H96l-16.9,36.2H75L91.9,253.8z"/>
</g>
</svg>
